<?xml version="1.0" encoding="utf-8"?>
<!-- Generator: Adobe Illustrator 22.1.0, SVG Export Plug-In . SVG Version: 6.00 Build 0)  -->
<svg version="1.1" xmlns="http://www.w3.org/2000/svg" xmlns:xlink="http://www.w3.org/1999/xlink" x="0px" y="0px"
	 viewBox="0 0 800 278" style="enable-background:new 0 0 800 278;" xml:space="preserve">
<style type="text/css">
	.st0{fill:#4E2A1A;}
	.st1{fill:#33CCFF;}
</style>
<g id="Background">
</g>
<g id="Objects">
</g>
<g id="Designed_by_Freepik">
	<g>
		<g>
			<path class="st0" d="M43.7,148.3c24.1,13.5,50.9,11.7,59.8-4.2c8.9-15.8-3.5-39.6-27.6-53.2C51.7,77.4,25,79.3,16.1,95.1
				C7.2,111,19.6,134.8,43.7,148.3z"/>
			<path class="st0" d="M14.6,192.8c-1.4,14.9,15.8,28.6,38.5,30.8c22.7,2.1,42.1-8.2,43.5-23.1c1.4-14.9-15.8-28.6-38.5-30.8
				C35.5,167.6,16,177.9,14.6,192.8z"/>
			<path class="st0" d="M141.3,106.3c15.8-8.9,17.7-35.6,4.2-59.8c-13.5-24.1-37.3-36.5-53.2-27.6c-15.8,8.9-17.7,35.6-4.2,59.8
				C101.6,102.8,125.4,115.2,141.3,106.3z"/>
			<path class="st0" d="M197.6,99.5c14.9-1.4,25.2-20.9,23.1-43.5c-2.1-22.7-15.9-39.9-30.8-38.5c-14.9,1.4-25.2,20.9-23.1,43.5
				C169,83.6,182.7,100.9,197.6,99.5z"/>
			<path class="st0" d="M269.9,206.7c22.6-22.6,20.2-48.2,2.1-66.4c-35.5-44.3-98.6-40.1-136.6-2c-33.7,33.7-40.8,87.1-11.1,123.6
				h90c11.9-13.1,12.2-16.6,20.1-24.6C244.3,227.5,247.3,229.3,269.9,206.7z"/>
		</g>
		<g>
			<path class="st0" d="M696.5,144.1c8.9,15.8,35.6,17.7,59.8,4.2c24.1-13.5,36.5-37.3,27.6-53.2c-8.9-15.8-35.6-17.7-59.8-4.2
				C700,104.5,687.6,128.3,696.5,144.1z"/>
			<path class="st0" d="M741.9,169.7c-22.7,2.1-39.9,15.9-38.5,30.8c1.4,14.9,20.9,25.2,43.5,23.1c22.7-2.1,39.9-15.9,38.5-30.8
				C784,177.9,764.5,167.6,741.9,169.7z"/>
			<path class="st0" d="M658.7,106.3c15.8,8.9,39.6-3.5,53.2-27.6c13.5-24.1,11.7-50.9-4.2-59.8c-15.8-8.9-39.6,3.5-53.2,27.6
				C641,70.7,642.9,97.4,658.7,106.3z"/>
			<path class="st0" d="M602.4,99.5c14.9,1.4,28.6-15.8,30.8-38.5s-8.2-42.1-23.1-43.5c-14.9-1.4-28.6,15.8-30.8,38.5
				C577.2,78.6,587.5,98.1,602.4,99.5z"/>
			<path class="st0" d="M664.6,138.3c-38-38-101.1-42.3-136.6,2c-18.2,18.2-20.5,43.8,2.1,66.4c22.6,22.6,25.7,20.8,35.5,30.6
				c8,8,8.3,11.5,20.1,24.6h90C705.4,225.4,698.3,172,664.6,138.3z"/>
		</g>
		<g>
			<path class="st1" d="M159.1,193.8h-15v21.1h13.4v9.5h-13.4v37.4H127v-78h32.1V193.8z"/>
			<path class="st1" d="M208.2,261.9h-17l-2.9-21h-7.6l-2.9,21h-17l12.8-78h21.7L208.2,261.9z M186.9,230.1l-2.5-23.3l-2.3,23.3
				H186.9z"/>
			<path class="st1" d="M210.7,261.9v-78H232c4.7,0,8.8,1.3,12.4,3.8c3.6,2.5,5.5,6.4,5.5,11.6v47.2c0,4.9-1.7,8.6-5.1,11.3
				c-3.4,2.7-7.6,4.1-12.7,4.1H210.7z M232.7,247.7v-49.8c0-2.7-1.6-4.1-4.9-4.1v58C231.1,251.8,232.7,250.5,232.7,247.7z"/>
			<path class="st1" d="M299.8,261.9h-17l-2.9-21h-7.6l-2.9,21h-17l12.8-78H287L299.8,261.9z M278.5,230.1l-2.5-23.3l-2.3,23.3
				H278.5z"/>
			<path class="st1" d="M382.1,261.9h-15.3v-43.8l-8.9,43.8h-11.8l-10.2-43.8v43.8h-13.4v-78h22l7.8,40.5l6.8-40.5h23V261.9z"/>
			<path class="st1" d="M432.2,261.9h-17l-2.9-21h-7.6l-2.9,21h-17l12.8-78h21.7L432.2,261.9z M410.9,230.1l-2.5-23.3l-2.3,23.3
				H410.9z"/>
			<path class="st1" d="M434.7,261.9v-78H456c4.7,0,8.8,1.3,12.4,3.8c3.6,2.5,5.5,6.4,5.5,11.6v47.2c0,4.9-1.7,8.6-5.1,11.3
				c-3.4,2.7-7.6,4.1-12.7,4.1H434.7z M456.7,247.7v-49.8c0-2.7-1.6-4.1-4.9-4.1v58C455.1,251.8,456.7,250.5,456.7,247.7z"/>
			<path class="st1" d="M519.8,262h-17.1c-1.8-2.2-2.8-8.5-2.8-18.8V243l0.1-4.7c0.1-6.5,0.2-9.8,0.2-10c0-2.6-1.8-4-5.3-4v37.4
				h-17.1v-78h21.2c4.8,0,9,1.1,12.6,3.3c3.6,2.2,5.4,5.7,5.4,10.5v9.4c0,6.1-3.5,10.2-10.6,12.3c7.1,1.7,10.7,6,10.7,12.9l-0.3,8.5
				C516.6,253.2,517.7,260.3,519.8,262z M500.1,210.8v-12.9c0-2.7-1.8-4.1-5.3-4.1v21.1C498.4,214.9,500.1,213.6,500.1,210.8z"/>
			<path class="st1" d="M539,261.9h-17.1v-78H539V261.9z"/>
			<path class="st1" d="M586.1,261.9h-17.6l-11.6-41.6v41.6h-14.3v-78h19.5l9.8,35.6v-35.6h14.3V261.9z"/>
			<path class="st1" d="M628.6,261.9h-17.1v-37.4h-4.8v37.4h-17.1v-78h17.1v31.1h4.8v-31.1h17.1V261.9z"/>
			<path class="st1" d="M678.5,261.9h-17l-2.9-21H651l-2.9,21h-17l12.8-78h21.7L678.5,261.9z M657.2,230.1l-2.5-23.3l-2.3,23.3
				H657.2z"/>
		</g>
		<g>
			<path class="st1" d="M362,140.7v28.7h-16.7v-78h18c7.1,0,12.5,0.9,15.9,2.7c3.5,1.8,5.2,5.5,5.2,11.1v21.7
				c0,5.1-1.4,8.7-4.2,10.9C377.3,139.8,371.3,140.8,362,140.7z M367.7,125.4v-18.7c0-2.8-1.9-4.1-5.7-4.1v27
				C365.8,129.5,367.7,128.2,367.7,125.4z"/>
			<path class="st1" d="M421,169.4h-33.5v-78h33.3v10h-16.2v21.1h14.6v9.5h-14.6v27.4H421V169.4z"/>
			<path class="st1" d="M459.6,101.6h-9.6v67.9h-17.1v-67.9h-9.6V91.4h36.3V101.6z"/>
		</g>
	</g>
	<g>
		<g>
			<path class="st0" d="M919.9,143.7c24.1,13.5,50.9,11.7,59.8-4.2c8.9-15.8-3.5-39.6-27.6-53.2c-24.1-13.5-50.9-11.7-59.8,4.2
				C883.4,106.4,895.8,130.2,919.9,143.7z"/>
			<path class="st0" d="M890.8,188.2c-1.4,14.9,15.8,28.6,38.5,30.8c22.7,2.1,42.1-8.2,43.5-23.1c1.4-14.9-15.8-28.6-38.5-30.8
				C911.7,163,892.2,173.3,890.8,188.2z"/>
			<path class="st0" d="M1017.4,101.7c15.8-8.9,17.7-35.6,4.2-59.8c-13.5-24.1-37.3-36.5-53.2-27.6c-15.8,8.9-17.7,35.6-4.2,59.8
				C977.8,98.2,1001.6,110.6,1017.4,101.7z"/>
			<path class="st0" d="M1073.8,94.9c14.9-1.4,25.2-20.9,23.1-43.5c-2.1-22.7-15.9-39.9-30.8-38.5c-14.9,1.4-25.2,20.9-23.1,43.5
				C1045.1,79,1058.9,96.3,1073.8,94.9z"/>
			<path class="st0" d="M1146.1,202.1c22.6-22.6,20.2-48.2,2.1-66.4c-35.5-44.3-98.6-40.1-136.6-2c-33.7,33.7-40.8,87.1-11.1,123.6
				h90c11.9-13.1,12.2-16.6,20.1-24.6C1120.4,222.9,1123.5,224.7,1146.1,202.1z"/>
		</g>
		<g>
			<path class="st0" d="M1572.7,139.5c8.9,15.8,35.6,17.7,59.8,4.2c24.1-13.5,36.5-37.3,27.6-53.2c-8.9-15.8-35.6-17.7-59.8-4.2
				C1576.2,99.9,1563.8,123.7,1572.7,139.5z"/>
			<path class="st0" d="M1618,165.1c-22.7,2.1-39.9,15.9-38.5,30.8c1.4,14.9,20.9,25.2,43.5,23.1c22.7-2.1,39.9-15.9,38.5-30.8
				C1660.2,173.3,1640.7,163,1618,165.1z"/>
			<path class="st0" d="M1534.9,101.7c15.8,8.9,39.6-3.5,53.2-27.6c13.5-24.1,11.7-50.9-4.2-59.8c-15.8-8.9-39.6,3.5-53.2,27.6
				C1517.2,66.1,1519.1,92.8,1534.9,101.7z"/>
			<path class="st0" d="M1478.6,94.9c14.9,1.4,28.6-15.8,30.8-38.5c2.1-22.7-8.2-42.1-23.1-43.5c-14.9-1.4-28.6,15.8-30.8,38.5
				C1453.4,74,1463.7,93.5,1478.6,94.9z"/>
			<path class="st0" d="M1540.7,133.7c-38-38-101.1-42.3-136.6,2c-18.2,18.2-20.5,43.8,2.1,66.4c22.6,22.6,25.7,20.8,35.5,30.6
				c8,8,8.3,11.5,20.1,24.6h90C1581.6,220.8,1574.5,167.4,1540.7,133.7z"/>
		</g>
		<text transform="matrix(1 0 0 1 1001.2771 257.2529)" class="st1" style="font-family:'Haettenschweiler'; font-size:111.455px;">FADA MADRINHA</text>
		<text transform="matrix(1 0 0 1 1219.5613 164.8145)" class="st1" style="font-family:'Haettenschweiler'; font-size:111.455px;">PET</text>
	</g>
</g>
</svg>
